HIERARCHY
ROOT Hips
{
	OFFSET 0.000000 0.000000 0.000000
	CHANNELS 6 Xposition Yposition Zposition Zrotation Yrotation Xrotation 
	JOINT LowerBack
	{
		OFFSET 0.000000 0.000000 0.000000
		CHANNELS 3 Zrotation Yrotation Xrotation
		JOINT Spine
		{
			OFFSET 0.028270 2.035590 -0.193380
			CHANNELS 3 Zrotation Yrotation Xrotation
			JOINT Spine1
			{
				OFFSET 0.056720 2.048850 -0.042750
				CHANNELS 3 Zrotation Yrotation Xrotation
				JOINT Neck
				{
					OFFSET 0.000000 0.000000 0.000000
					CHANNELS 3 Zrotation Yrotation Xrotation
					JOINT Neck1
					{
						OFFSET -0.054170 1.746240 0.172020
						CHANNELS 3 Zrotation Yrotation Xrotation
						JOINT Head
						{
							OFFSET 0.104070 1.761360 -0.123970
							CHANNELS 3 Zrotation Yrotation Xrotation
							End Site
							{
								OFFSET 0.000000 0.000000 0.000000
							}
						}
					}
				}
				JOINT LeftShoulder
				{
					OFFSET 0.000000 0.000000 0.000000
					CHANNELS 3 Zrotation Yrotation Xrotation
					JOINT LeftArm
					{
						OFFSET 3.362410 1.200890 -0.311210
						CHANNELS 3 Zrotation Yrotation Xrotation
						JOINT LeftForeArm
						{
							OFFSET 4.983000 -0.000000 -0.000000
							CHANNELS 3 Zrotation Yrotation Xrotation
							JOINT LeftHand
							{
								OFFSET 3.483560 -0.000000 -0.000000
								CHANNELS 3 Zrotation Yrotation Xrotation
								JOINT LeftFingerBase
								{
									OFFSET 0.000000 0.000000 0.000000
									CHANNELS 3 Zrotation Yrotation Xrotation
									JOINT LeftHandIndex1
									{
										OFFSET 0.715260 -0.000000 -0.000000
										CHANNELS 3 Zrotation Yrotation Xrotation
										End Site
										{
											OFFSET 0.000000 0.000000 0.000000
										}
									}
								}
								JOINT LThumb
								{
									OFFSET 0.000000 0.000000 0.000000
									CHANNELS 3 Zrotation Yrotation Xrotation
									End Site
									{
										OFFSET 0.000000 0.000000 0.000000
									}
								}
							}
						}
					}
				}
				JOINT RightShoulder
				{
					OFFSET 0.000000 0.000000 0.000000
					CHANNELS 3 Zrotation Yrotation Xrotation
					JOINT RightArm
					{
						OFFSET -3.136600 1.374050 -0.404650
						CHANNELS 3 Zrotation Yrotation Xrotation
						JOINT RightForeArm
						{
							OFFSET -5.241900 -0.000000 -0.000000
							CHANNELS 3 Zrotation Yrotation Xrotation
							JOINT RightHand
							{
								OFFSET -3.444170 -0.000000 -0.000000
								CHANNELS 3 Zrotation Yrotation Xrotation
								JOINT RightFingerBase
								{
									OFFSET 0.000000 0.000000 0.000000
									CHANNELS 3 Zrotation Yrotation Xrotation
									JOINT RightHandIndex1
									{
										OFFSET -0.622530 -0.000000 -0.000000
										CHANNELS 3 Zrotation Yrotation Xrotation
										End Site
										{
											OFFSET 0.000000 0.000000 0.000000
										}
									}
								}
								JOINT RThumb
								{
									OFFSET 0.000000 0.000000 0.000000
									CHANNELS 3 Zrotation Yrotation Xrotation
									End Site
									{
										OFFSET 0.000000 0.000000 0.000000
									}
								}
							}
						}
					}
				}
			}
		}
	}
}
}
MOTION
Frames: 12
Frame Time: 0.008333
0.244904 15.394859 -1.280768 -144.692935 78.069355 -120.008332 -1.159887 1.340821 11.324843 -0.864096 1.614325 -0.720871 -4.857937 1.663467 -0.282543 8.538788 -8.123703 -8.605584 -1.134028 -0.040922 -0.694945 0.000000 0.000000 0.000000 3.116339 19.375089 2.687545 -76.548566 24.239994 11.271725 -0.311677 -82.359612 0.003793 -1.232290 3.833744 -0.039925 0.008534 0.115238 0.000000 0.000000 0.000000 0.000000 0.000000 0.000000 0.000000 1.567879 -0.394454 -0.729929 59.308032 9.870321 3.323383 179.763694 81.511112 179.957900 -5.973281 1.798843 -0.118731 0.104487 -0.449176 0.000000 0.000000 0.000000 0.000000 0.000000 0.000000 0.000000 
0.442375 15.339894 -1.320989 -143.616728 78.021804 -119.487795 -1.441444 1.326854 11.368817 -0.945370 1.605574 -0.749564 -4.966507 1.657366 -0.407020 8.639853 -7.916692 -8.643217 -1.189330 -0.044582 -0.704055 0.000000 0.000000 0.000000 2.900659 19.193615 2.711971 -76.084959 23.730343 11.176354 -0.310978 -82.507596 0.003420 -1.110467 3.881900 -0.036297 0.005246 0.116897 0.000000 0.000000 0.000000 0.000000 0.000000 0.000000 0.000000 1.811587 -0.094549 -0.661865 59.791422 9.558721 3.576232 179.760831 81.850650 179.961792 -5.443732 1.824917 -0.109237 0.092907 -0.448163 0.000000 0.000000 0.000000 0.000000 0.000000 0.000000 0.000000 
0.636748 15.288639 -1.359959 -142.857646 77.987462 -119.260453 -1.733603 1.306341 11.423814 -1.029797 1.589627 -0.778983 -5.081364 1.643742 -0.544529 8.727832 -7.688222 -8.661128 -1.255249 -0.049303 -0.708761 0.000000 0.000000 0.000000 2.634081 18.946013 2.735129 -75.529839 23.077011 11.125399 -0.313505 -82.580607 0.002837 -0.930850 3.966492 -0.030863 0.000648 0.118393 0.000000 0.000000 0.000000 0.000000 0.000000 0.000000 0.000000 2.089438 0.213509 -0.589693 60.329381 9.220979 3.785758 179.762333 82.263393 179.965233 -4.974706 1.856544 -0.101142 0.082293 -0.447103 0.000000 0.000000 0.000000 0.000000 0.000000 0.000000 0.000000 
0.827648 15.241792 -1.398164 -142.423625 77.957382 -119.331488 -2.025095 1.279809 11.488731 -1.114597 1.566707 -0.808001 -5.200919 1.622759 -0.690439 8.795518 -7.446433 -8.658159 -1.330810 -0.055025 -0.708636 0.000000 0.000000 0.000000 2.322074 18.634587 2.756157 -74.893123 22.270274 11.116735 -0.320002 -82.563774 0.002000 -0.686876 4.092749 -0.023121 -0.005405 0.119652 0.000000 0.000000 0.000000 0.000000 0.000000 0.000000 0.000000 2.394716 0.516924 -0.515561 60.920140 8.865152 3.955165 179.769281 82.766777 179.968104 -4.583878 1.896957 -0.094646 0.072969 -0.445965 0.000000 0.000000 0.000000 0.000000 0.000000 0.000000 0.000000 
1.014780 15.199823 -1.436081 -142.305894 77.924228 -119.691538 -2.304155 1.247934 11.562089 -1.196698 1.537267 -0.835087 -5.322629 1.594858 -0.838260 8.835516 -7.200536 -8.635161 -1.414176 -0.061591 -0.703754 0.000000 0.000000 0.000000 1.973615 18.269391 2.774413 -74.189448 21.301022 11.149663 -0.331250 -82.442960 0.000874 -0.375322 4.263235 -0.012573 -0.012987 0.120639 0.000000 0.000000 0.000000 0.000000 0.000000 0.000000 0.000000 2.717335 0.802125 -0.442192 61.561361 8.503319 4.091374 179.782612 83.380982 179.970319 -4.284327 1.949917 -0.090349 0.065153 -0.444688 0.000000 0.000000 0.000000 0.000000 0.000000 0.000000 0.000000 
1.198044 15.162947 -1.474217 -142.471915 77.881385 -120.308871 -2.556913 1.211985 11.641497 -1.272608 1.502422 -0.859927 -5.443807 1.561070 -0.985234 8.839367 -6.957153 -8.590827 -1.503296 -0.068870 -0.693425 0.000000 0.000000 0.000000 1.590090 17.846745 2.788914 -73.435558 20.186431 11.204654 -0.347168 -82.224256 -0.000560 0.001146 4.479715 0.001480 -0.021971 0.121316 0.000000 0.000000 0.000000 0.000000 0.000000 0.000000 0.000000 3.043468 1.059579 -0.370424 62.250303 8.143522 4.202752 179.802753 84.125542 179.971837 -4.083607 2.019094 -0.088451 0.058990 -0.443198 0.000000 0.000000 0.000000 0.000000 0.000000 0.000000 0.000000 
1.377321 15.131105 -1.513182 -142.873323 77.823022 -121.137174 -2.773935 1.172423 11.724281 -1.339520 1.462649 -0.880453 -5.560737 1.522013 -1.121804 8.801885 -6.724336 -8.530404 -1.595071 -0.076536 -0.678927 0.000000 0.000000 0.000000 1.188152 17.395148 2.799709 -72.654542 18.914399 11.287508 -0.368548 -81.894559 -0.002322 0.438105 4.739464 0.019638 -0.032281 0.121754 0.000000 0.000000 0.000000 0.000000 0.000000 0.000000 0.000000 3.359000 1.278629 -0.303950 62.982759 7.801662 4.299661 179.829938 85.019481 179.972654 -3.984039 2.108590 -0.089251 0.054455 -0.441396 -0.000000 0.000000 0.000000 0.000000 0.000000 0.000000 0.000000 
1.552581 15.104152 -1.553554 -143.442583 77.744126 -122.110693 -2.943998 1.130406 11.806034 -1.394521 1.419160 -0.897108 -5.670492 1.478866 -1.246289 8.717667 -6.505126 -8.454034 -1.687031 -0.084412 -0.659919 0.000000 0.000000 0.000000 0.771042 16.913311 2.806022 -71.868890 17.514448 11.373128 -0.394663 -81.473068 -0.004396 0.924505 5.038055 0.042198 -0.043574 0.122025 0.000000 0.000000 0.000000 0.000000 0.000000 0.000000 0.000000 3.648852 1.456098 -0.242411 63.753635 7.482892 4.390247 179.863557 86.077231 179.972821 -3.981195 2.220812 -0.093054 0.051477 -0.439173 -0.000000 0.000000 0.000000 0.000000 0.000000 0.000000 0.000000 
1.723892 15.081803 -1.595668 -144.115716 77.643395 -123.166056 -3.061209 1.086402 11.881821 -1.435758 1.372596 -0.909641 -5.769808 1.432365 -1.353917 8.585089 -6.302455 -8.365544 -1.776495 -0.092244 -0.637209 0.000000 0.000000 0.000000 0.351706 16.417199 2.807637 -71.104026 16.000500 11.450778 -0.425121 -80.969759 -0.006760 1.447863 5.366952 0.069558 -0.055534 0.122286 0.000000 0.000000 0.000000 0.000000 0.000000 0.000000 0.000000 3.900566 1.589914 -0.186507 64.556874 7.194511 4.481855 179.902615 87.308503 179.972423 -4.066246 2.357378 -0.099755 0.049885 -0.436411 -0.000000 0.000000 0.000000 0.000000 0.000000 0.000000 0.000000 
1.891300 15.063729 -1.639927 -144.824545 77.518859 -124.234054 -3.121888 1.040801 11.945531 -1.462105 1.323570 -0.918967 -5.856395 1.383156 -1.443404 8.405035 -6.116399 -8.267008 -1.861375 -0.099855 -0.611113 0.000000 0.000000 0.000000 -0.058591 15.911665 2.804064 -70.384573 14.400676 11.501782 -0.458789 -80.406887 -0.009371 1.993286 5.715445 0.101516 -0.067757 0.122728 0.000000 0.000000 0.000000 0.000000 0.000000 0.000000 0.000000 4.104622 1.682525 -0.134916 65.384838 6.937031 4.578511 179.945656 88.716136 179.971582 -4.225997 2.517605 -0.109558 0.049475 -0.432991 -0.000000 0.000000 0.000000 0.000000 0.000000 0.000000 0.000000 
2.054930 15.049631 -1.686325 -145.522199 77.372622 -125.265556 -3.127490 0.993525 11.991382 -1.473556 1.272280 -0.925568 -5.928198 1.331548 -1.512027 8.182240 -5.947263 -8.162765 -1.939879 -0.107057 -0.582709 0.000000 0.000000 0.000000 -0.442346 15.411734 2.795060 -69.734157 12.730395 11.519387 -0.494742 -79.800252 -0.012180 2.545016 6.070080 0.137170 -0.079898 0.123593 0.000000 0.000000 0.000000 0.000000 0.000000 0.000000 0.000000 4.256288 1.737152 -0.086693 66.229114 6.710884 4.682551 -0.008900 89.703895 -0.029559 -4.444291 2.699305 -0.122162 0.050006 -0.428803 -0.000000 0.000000 0.000000 0.000000 0.000000 0.000000 0.000000 
2.214908 15.039282 -1.734676 -146.177795 77.207783 -126.226303 -3.082227 0.944575 12.014092 -1.470971 1.218994 -0.931020 -5.984368 1.277806 -1.561520 7.923852 -5.792134 -8.053836 -2.011233 -0.113794 -0.552156 0.000000 0.000000 0.000000 -0.784494 14.915775 2.780085 -69.172259 11.021858 11.487670 -0.531240 -79.178018 -0.015104 3.086941 6.416979 0.175618 -0.091568 0.125102 0.000000 0.000000 0.000000 0.000000 0.000000 0.000000 0.000000 4.355778 1.761304 -0.038794 67.079702 6.508437 4.791908 0.037419 87.964018 -0.030848 -4.703840 2.897863 -0.137367 0.051269 -0.423764 -0.000000 0.000000 0.000000 0.000000 0.000000 0.000000 0.000000 
